# xmcd CD database file
#
# Track frame offsets:
#	150
#	19655
#	39157
#	58607
#
# Disc length: 1040 seconds
#
# Revision: 0
# Processed by: cddbd v1.5.1PL0 Copyright (c) Steve Scherf et al.
# Submitted via: CDex 1.51
#
DISCID=25040e04
DTITLE=きただにひろし - Revolution
DYEAR=1900
DGENRE=J-Pop
TTITLE0=Revolution
TTITLE1=reborn
TTITLE2=Revolution(karaoke)
TTITLE3=reborn(karaoke)
EXTD=
EXTT0=
EXTT1=
EXTT2=
EXTT3=
PLAYORDER=
